<mxfile host="app.diagrams.net" agent="Mozilla/5.0 (Windows NT 10.0; Win64; x64) AppleWebKit/537.36 (KHTML, like Gecko) Chrome/128.0.0.0 Safari/537.36 Edg/128.0.0.0" version="24.7.12">
  <diagram name="第 1 页" id="7SWY5ybeSa3ooZxuzN5h">
    <mxGraphModel dx="1166" dy="665" grid="0" gridSize="10" guides="1" tooltips="1" connect="1" arrows="1" fold="1" page="0" pageScale="1" pageWidth="1169" pageHeight="827" math="0" shadow="0">
      <root>
        <mxCell id="0" />
        <mxCell id="1" parent="0" />
        <mxCell id="tAvv9DdRDTr8YSpIfmkk-43" value="" style="rounded=0;whiteSpace=wrap;html=1;color=red;strokeColor=#ff0000;strokeWidth=5;" vertex="1" parent="1">
          <mxGeometry x="231.5" y="585" width="102.75" height="75" as="geometry" />
        </mxCell>
        <mxCell id="tAvv9DdRDTr8YSpIfmkk-42" value="" style="rounded=0;whiteSpace=wrap;html=1;color=red;strokeColor=#ff0000;strokeWidth=5;" vertex="1" parent="1">
          <mxGeometry x="231.5" y="503.5" width="213.5" height="75" as="geometry" />
        </mxCell>
        <mxCell id="tAvv9DdRDTr8YSpIfmkk-7" style="edgeStyle=orthogonalEdgeStyle;rounded=0;orthogonalLoop=1;jettySize=auto;html=1;exitX=1;exitY=0.5;exitDx=0;exitDy=0;entryX=0;entryY=0.5;entryDx=0;entryDy=0;" edge="1" parent="1" source="tAvv9DdRDTr8YSpIfmkk-1" target="tAvv9DdRDTr8YSpIfmkk-2">
          <mxGeometry relative="1" as="geometry" />
        </mxCell>
        <mxCell id="tAvv9DdRDTr8YSpIfmkk-10" style="edgeStyle=orthogonalEdgeStyle;rounded=0;orthogonalLoop=1;jettySize=auto;html=1;exitX=1;exitY=0.5;exitDx=0;exitDy=0;entryX=0;entryY=0.5;entryDx=0;entryDy=0;" edge="1" parent="1" source="tAvv9DdRDTr8YSpIfmkk-1" target="tAvv9DdRDTr8YSpIfmkk-5">
          <mxGeometry relative="1" as="geometry" />
        </mxCell>
        <mxCell id="tAvv9DdRDTr8YSpIfmkk-1" value="&lt;font style=&quot;font-size: 24px;&quot;&gt;h&lt;/font&gt;" style="ellipse;whiteSpace=wrap;html=1;aspect=fixed;" vertex="1" parent="1">
          <mxGeometry x="310" y="170" width="50" height="50" as="geometry" />
        </mxCell>
        <mxCell id="tAvv9DdRDTr8YSpIfmkk-8" style="edgeStyle=orthogonalEdgeStyle;rounded=0;orthogonalLoop=1;jettySize=auto;html=1;exitX=1;exitY=0.5;exitDx=0;exitDy=0;entryX=0;entryY=0.5;entryDx=0;entryDy=0;" edge="1" parent="1" source="tAvv9DdRDTr8YSpIfmkk-2" target="tAvv9DdRDTr8YSpIfmkk-3">
          <mxGeometry relative="1" as="geometry" />
        </mxCell>
        <mxCell id="tAvv9DdRDTr8YSpIfmkk-2" value="&lt;font style=&quot;font-size: 24px;&quot;&gt;e&lt;/font&gt;" style="ellipse;whiteSpace=wrap;html=1;aspect=fixed;" vertex="1" parent="1">
          <mxGeometry x="450" y="170" width="50" height="50" as="geometry" />
        </mxCell>
        <mxCell id="tAvv9DdRDTr8YSpIfmkk-9" style="edgeStyle=orthogonalEdgeStyle;rounded=0;orthogonalLoop=1;jettySize=auto;html=1;exitX=1;exitY=0.5;exitDx=0;exitDy=0;entryX=0;entryY=0.5;entryDx=0;entryDy=0;" edge="1" parent="1" source="tAvv9DdRDTr8YSpIfmkk-3" target="tAvv9DdRDTr8YSpIfmkk-4">
          <mxGeometry relative="1" as="geometry" />
        </mxCell>
        <mxCell id="tAvv9DdRDTr8YSpIfmkk-3" value="&lt;font style=&quot;font-size: 24px;&quot;&gt;r&lt;/font&gt;" style="ellipse;whiteSpace=wrap;html=1;aspect=fixed;" vertex="1" parent="1">
          <mxGeometry x="600" y="170" width="50" height="50" as="geometry" />
        </mxCell>
        <mxCell id="tAvv9DdRDTr8YSpIfmkk-4" value="&lt;font style=&quot;font-size: 24px;&quot;&gt;s&lt;/font&gt;" style="ellipse;whiteSpace=wrap;html=1;aspect=fixed;" vertex="1" parent="1">
          <mxGeometry x="740" y="170" width="50" height="50" as="geometry" />
        </mxCell>
        <mxCell id="tAvv9DdRDTr8YSpIfmkk-11" style="edgeStyle=orthogonalEdgeStyle;rounded=0;orthogonalLoop=1;jettySize=auto;html=1;exitX=1;exitY=0.5;exitDx=0;exitDy=0;" edge="1" parent="1" source="tAvv9DdRDTr8YSpIfmkk-5" target="tAvv9DdRDTr8YSpIfmkk-6">
          <mxGeometry relative="1" as="geometry" />
        </mxCell>
        <mxCell id="tAvv9DdRDTr8YSpIfmkk-5" value="&lt;font style=&quot;font-size: 24px;&quot;&gt;i&lt;/font&gt;" style="ellipse;whiteSpace=wrap;html=1;aspect=fixed;" vertex="1" parent="1">
          <mxGeometry x="450" y="270" width="50" height="50" as="geometry" />
        </mxCell>
        <mxCell id="tAvv9DdRDTr8YSpIfmkk-6" value="&lt;font style=&quot;font-size: 24px;&quot;&gt;s&lt;/font&gt;" style="ellipse;whiteSpace=wrap;html=1;aspect=fixed;" vertex="1" parent="1">
          <mxGeometry x="600" y="270" width="50" height="50" as="geometry" />
        </mxCell>
        <mxCell id="tAvv9DdRDTr8YSpIfmkk-13" style="edgeStyle=orthogonalEdgeStyle;rounded=0;orthogonalLoop=1;jettySize=auto;html=1;exitX=1;exitY=0.5;exitDx=0;exitDy=0;entryX=0;entryY=0.5;entryDx=0;entryDy=0;" edge="1" parent="1" source="tAvv9DdRDTr8YSpIfmkk-12" target="tAvv9DdRDTr8YSpIfmkk-1">
          <mxGeometry relative="1" as="geometry" />
        </mxCell>
        <mxCell id="tAvv9DdRDTr8YSpIfmkk-12" value="&lt;font style=&quot;font-size: 18px;&quot;&gt;root&lt;/font&gt;" style="ellipse;whiteSpace=wrap;html=1;aspect=fixed;" vertex="1" parent="1">
          <mxGeometry x="160" y="170" width="50" height="50" as="geometry" />
        </mxCell>
        <mxCell id="tAvv9DdRDTr8YSpIfmkk-31" style="edgeStyle=orthogonalEdgeStyle;rounded=0;orthogonalLoop=1;jettySize=auto;html=1;exitX=1;exitY=0.5;exitDx=0;exitDy=0;entryX=0;entryY=0.5;entryDx=0;entryDy=0;" edge="1" parent="1" source="tAvv9DdRDTr8YSpIfmkk-14" target="tAvv9DdRDTr8YSpIfmkk-20">
          <mxGeometry relative="1" as="geometry" />
        </mxCell>
        <mxCell id="tAvv9DdRDTr8YSpIfmkk-14" value="&lt;font style=&quot;font-size: 24px;&quot;&gt;a&lt;/font&gt;" style="ellipse;whiteSpace=wrap;html=1;aspect=fixed;" vertex="1" parent="1">
          <mxGeometry x="251" y="431" width="50" height="50" as="geometry" />
        </mxCell>
        <mxCell id="tAvv9DdRDTr8YSpIfmkk-36" style="edgeStyle=orthogonalEdgeStyle;rounded=0;orthogonalLoop=1;jettySize=auto;html=1;exitX=1;exitY=0.5;exitDx=0;exitDy=0;entryX=0;entryY=0.5;entryDx=0;entryDy=0;" edge="1" parent="1" source="tAvv9DdRDTr8YSpIfmkk-18" target="tAvv9DdRDTr8YSpIfmkk-21">
          <mxGeometry relative="1" as="geometry" />
        </mxCell>
        <mxCell id="tAvv9DdRDTr8YSpIfmkk-18" value="&lt;font style=&quot;font-size: 24px;&quot;&gt;b&lt;/font&gt;" style="ellipse;whiteSpace=wrap;html=1;aspect=fixed;" vertex="1" parent="1">
          <mxGeometry x="251" y="516" width="50" height="50" as="geometry" />
        </mxCell>
        <mxCell id="tAvv9DdRDTr8YSpIfmkk-37" style="edgeStyle=orthogonalEdgeStyle;rounded=0;orthogonalLoop=1;jettySize=auto;html=1;exitX=1;exitY=0.5;exitDx=0;exitDy=0;entryX=0;entryY=0.5;entryDx=0;entryDy=0;" edge="1" parent="1" source="tAvv9DdRDTr8YSpIfmkk-19" target="tAvv9DdRDTr8YSpIfmkk-22">
          <mxGeometry relative="1" as="geometry" />
        </mxCell>
        <mxCell id="tAvv9DdRDTr8YSpIfmkk-19" value="&lt;font style=&quot;font-size: 24px;&quot;&gt;c&lt;/font&gt;" style="ellipse;whiteSpace=wrap;html=1;aspect=fixed;" vertex="1" parent="1">
          <mxGeometry x="251" y="601" width="50" height="50" as="geometry" />
        </mxCell>
        <mxCell id="tAvv9DdRDTr8YSpIfmkk-32" style="edgeStyle=orthogonalEdgeStyle;rounded=0;orthogonalLoop=1;jettySize=auto;html=1;exitX=1;exitY=0.5;exitDx=0;exitDy=0;" edge="1" parent="1" source="tAvv9DdRDTr8YSpIfmkk-20" target="tAvv9DdRDTr8YSpIfmkk-23">
          <mxGeometry relative="1" as="geometry" />
        </mxCell>
        <mxCell id="tAvv9DdRDTr8YSpIfmkk-20" value="&lt;font style=&quot;font-size: 24px;&quot;&gt;b&lt;/font&gt;" style="ellipse;whiteSpace=wrap;html=1;aspect=fixed;" vertex="1" parent="1">
          <mxGeometry x="370" y="431" width="50" height="50" as="geometry" />
        </mxCell>
        <mxCell id="tAvv9DdRDTr8YSpIfmkk-41" style="edgeStyle=orthogonalEdgeStyle;rounded=0;orthogonalLoop=1;jettySize=auto;html=1;exitX=1;exitY=0.5;exitDx=0;exitDy=0;entryX=0;entryY=0.5;entryDx=0;entryDy=0;" edge="1" parent="1" source="tAvv9DdRDTr8YSpIfmkk-21" target="tAvv9DdRDTr8YSpIfmkk-24">
          <mxGeometry relative="1" as="geometry" />
        </mxCell>
        <mxCell id="tAvv9DdRDTr8YSpIfmkk-21" value="&lt;font style=&quot;font-size: 24px;&quot;&gt;c&lt;/font&gt;" style="ellipse;whiteSpace=wrap;html=1;aspect=fixed;" vertex="1" parent="1">
          <mxGeometry x="370" y="516" width="50" height="50" as="geometry" />
        </mxCell>
        <mxCell id="tAvv9DdRDTr8YSpIfmkk-38" style="edgeStyle=orthogonalEdgeStyle;rounded=0;orthogonalLoop=1;jettySize=auto;html=1;exitX=1;exitY=0.5;exitDx=0;exitDy=0;entryX=0;entryY=0.5;entryDx=0;entryDy=0;" edge="1" parent="1" source="tAvv9DdRDTr8YSpIfmkk-22" target="tAvv9DdRDTr8YSpIfmkk-25">
          <mxGeometry relative="1" as="geometry" />
        </mxCell>
        <mxCell id="tAvv9DdRDTr8YSpIfmkk-22" value="&lt;font style=&quot;font-size: 24px;&quot;&gt;d&lt;/font&gt;" style="ellipse;whiteSpace=wrap;html=1;aspect=fixed;" vertex="1" parent="1">
          <mxGeometry x="370" y="601" width="50" height="50" as="geometry" />
        </mxCell>
        <mxCell id="tAvv9DdRDTr8YSpIfmkk-33" style="edgeStyle=orthogonalEdgeStyle;rounded=0;orthogonalLoop=1;jettySize=auto;html=1;exitX=1;exitY=0.5;exitDx=0;exitDy=0;entryX=0;entryY=0.5;entryDx=0;entryDy=0;" edge="1" parent="1" source="tAvv9DdRDTr8YSpIfmkk-23" target="tAvv9DdRDTr8YSpIfmkk-26">
          <mxGeometry relative="1" as="geometry" />
        </mxCell>
        <mxCell id="tAvv9DdRDTr8YSpIfmkk-23" value="&lt;font style=&quot;font-size: 24px;&quot;&gt;c&lt;/font&gt;" style="ellipse;whiteSpace=wrap;html=1;aspect=fixed;" vertex="1" parent="1">
          <mxGeometry x="490" y="431" width="50" height="50" as="geometry" />
        </mxCell>
        <mxCell id="tAvv9DdRDTr8YSpIfmkk-40" style="edgeStyle=orthogonalEdgeStyle;rounded=0;orthogonalLoop=1;jettySize=auto;html=1;exitX=1;exitY=0.5;exitDx=0;exitDy=0;entryX=0;entryY=0.5;entryDx=0;entryDy=0;" edge="1" parent="1" source="tAvv9DdRDTr8YSpIfmkk-24" target="tAvv9DdRDTr8YSpIfmkk-27">
          <mxGeometry relative="1" as="geometry" />
        </mxCell>
        <mxCell id="tAvv9DdRDTr8YSpIfmkk-24" value="&lt;font style=&quot;font-size: 24px;&quot;&gt;d&lt;/font&gt;" style="ellipse;whiteSpace=wrap;html=1;aspect=fixed;" vertex="1" parent="1">
          <mxGeometry x="490" y="516" width="50" height="50" as="geometry" />
        </mxCell>
        <mxCell id="tAvv9DdRDTr8YSpIfmkk-39" style="edgeStyle=orthogonalEdgeStyle;rounded=0;orthogonalLoop=1;jettySize=auto;html=1;exitX=1;exitY=0.5;exitDx=0;exitDy=0;" edge="1" parent="1" source="tAvv9DdRDTr8YSpIfmkk-25" target="tAvv9DdRDTr8YSpIfmkk-28">
          <mxGeometry relative="1" as="geometry" />
        </mxCell>
        <mxCell id="tAvv9DdRDTr8YSpIfmkk-25" value="&lt;font style=&quot;font-size: 24px;&quot;&gt;e&lt;/font&gt;" style="ellipse;whiteSpace=wrap;html=1;aspect=fixed;" vertex="1" parent="1">
          <mxGeometry x="490" y="601" width="50" height="50" as="geometry" />
        </mxCell>
        <mxCell id="tAvv9DdRDTr8YSpIfmkk-26" value="&lt;font style=&quot;font-size: 24px;&quot;&gt;h&lt;/font&gt;" style="ellipse;whiteSpace=wrap;html=1;aspect=fixed;" vertex="1" parent="1">
          <mxGeometry x="600" y="431" width="50" height="50" as="geometry" />
        </mxCell>
        <mxCell id="tAvv9DdRDTr8YSpIfmkk-27" value="&lt;font style=&quot;font-size: 24px;&quot;&gt;g&lt;/font&gt;" style="ellipse;whiteSpace=wrap;html=1;aspect=fixed;" vertex="1" parent="1">
          <mxGeometry x="600" y="516" width="50" height="50" as="geometry" />
        </mxCell>
        <mxCell id="tAvv9DdRDTr8YSpIfmkk-28" value="&lt;font style=&quot;font-size: 24px;&quot;&gt;f&lt;/font&gt;" style="ellipse;whiteSpace=wrap;html=1;aspect=fixed;" vertex="1" parent="1">
          <mxGeometry x="600" y="601" width="50" height="50" as="geometry" />
        </mxCell>
        <mxCell id="tAvv9DdRDTr8YSpIfmkk-30" style="edgeStyle=orthogonalEdgeStyle;rounded=0;orthogonalLoop=1;jettySize=auto;html=1;exitX=1;exitY=0.5;exitDx=0;exitDy=0;entryX=0;entryY=0.5;entryDx=0;entryDy=0;" edge="1" parent="1" source="tAvv9DdRDTr8YSpIfmkk-29" target="tAvv9DdRDTr8YSpIfmkk-14">
          <mxGeometry relative="1" as="geometry" />
        </mxCell>
        <mxCell id="tAvv9DdRDTr8YSpIfmkk-34" style="edgeStyle=orthogonalEdgeStyle;rounded=0;orthogonalLoop=1;jettySize=auto;html=1;exitX=1;exitY=0.5;exitDx=0;exitDy=0;entryX=0;entryY=0.5;entryDx=0;entryDy=0;" edge="1" parent="1" source="tAvv9DdRDTr8YSpIfmkk-29" target="tAvv9DdRDTr8YSpIfmkk-18">
          <mxGeometry relative="1" as="geometry" />
        </mxCell>
        <mxCell id="tAvv9DdRDTr8YSpIfmkk-35" style="edgeStyle=orthogonalEdgeStyle;rounded=0;orthogonalLoop=1;jettySize=auto;html=1;exitX=1;exitY=0.5;exitDx=0;exitDy=0;entryX=0;entryY=0.5;entryDx=0;entryDy=0;" edge="1" parent="1" source="tAvv9DdRDTr8YSpIfmkk-29" target="tAvv9DdRDTr8YSpIfmkk-19">
          <mxGeometry relative="1" as="geometry" />
        </mxCell>
        <mxCell id="tAvv9DdRDTr8YSpIfmkk-29" value="&lt;font style=&quot;font-size: 18px;&quot;&gt;root&lt;/font&gt;" style="ellipse;whiteSpace=wrap;html=1;aspect=fixed;" vertex="1" parent="1">
          <mxGeometry x="71" y="431" width="50" height="50" as="geometry" />
        </mxCell>
      </root>
    </mxGraphModel>
  </diagram>
</mxfile>
